<svg width="56" height="56" viewBox="0 0 56 56" fill="none" xmlns="http://www.w3.org/2000/svg">
<rect width="56" height="56" rx="4" fill="white"/>
<path d="M52.1733 28.8867H3.82666" stroke="#4C7B67" stroke-width="2" stroke-linecap="round" stroke-linejoin="round"/>
<path d="M37.8934 46.5267H18.1067C16.0268 46.5408 14.0017 45.8596 12.3531 44.5914C10.7045 43.3232 9.52667 41.5407 9.00672 39.5267L6.13672 28.8867H49.8634L46.9934 39.6667C46.4472 41.6546 45.2582 43.4058 43.6119 44.6468C41.9657 45.8878 39.9549 46.5489 37.8934 46.5267Z" stroke="#4C7B67" stroke-width="2" stroke-linecap="round" stroke-linejoin="round"/>
<path d="M39.9234 28.2333C39.9234 25.4333 35.6767 22.47 32.9234 22.47C31.9425 22.4746 30.9819 22.7491 30.1467 23.2633C29.834 21.9496 29.0982 20.7749 28.0526 19.9202C27.007 19.0656 25.7095 18.5782 24.3597 18.5331C23.01 18.488 21.6829 18.8877 20.5825 19.6708C19.4822 20.4538 18.6697 21.5767 18.27 22.8667C17.6563 22.6102 16.9985 22.4755 16.3334 22.47C13.51 22.47 9.33337 25.4333 9.33337 28.2333C9.33337 28.4433 9.33337 28.6533 9.33337 28.8867H39.8534C39.8767 28.6533 39.9234 28.4433 39.9234 28.2333Z" stroke="#4C7B67" stroke-width="2" stroke-linecap="round" stroke-linejoin="round"/>
<path d="M40.9733 17.6867C43.2929 17.6867 45.1733 15.8481 45.1733 13.5801C45.1733 11.312 43.2929 9.47339 40.9733 9.47339C38.6537 9.47339 36.7733 11.312 36.7733 13.5801C36.7733 15.8481 38.6537 17.6867 40.9733 17.6867Z" stroke="#4C7B67" stroke-width="2" stroke-linecap="round" stroke-linejoin="round"/>
</svg>
