<svg width="56" height="56" viewBox="0 0 56 56" fill="none" xmlns="http://www.w3.org/2000/svg">
<rect width="56" height="56" rx="4" fill="#4C7B67" fill-opacity="0.1"/>
<path d="M17.0567 21.8867V32.0367H38.9433V21.8867H47.7633C46.9582 18.7363 45.1313 15.9417 42.5684 13.9405C40.0056 11.9392 36.8516 10.8441 33.6 10.8267H22.4C19.1484 10.8441 15.9944 11.9392 13.4315 13.9405C10.8687 15.9417 9.04178 18.7363 8.23666 21.8867H17.0567Z" stroke="#4C7B67" stroke-width="2" stroke-linecap="round" stroke-linejoin="round"/>
<path d="M38.9433 21.8867V32.0367H17.0567V21.8867H7.28001C6.78275 21.8836 6.28982 21.9792 5.82981 22.1681C5.3698 22.357 4.95187 22.6353 4.60024 22.9869C4.24862 23.3385 3.9703 23.7565 3.78144 24.2165C3.59257 24.6765 3.49691 25.1694 3.50001 25.6667V38.8033C3.49379 40.4887 4.15578 42.1079 5.34097 43.3063C6.52617 44.5046 8.13797 45.1843 9.82335 45.1967H46.1767C47.8621 45.1843 49.4739 44.5046 50.659 43.3063C51.8442 42.1079 52.5062 40.4887 52.5 38.8033V25.6667C52.5 25.1714 52.4021 24.681 52.2118 24.2236C52.0216 23.7663 51.7428 23.3512 51.3915 23.002C51.0402 22.6529 50.6233 22.3767 50.1648 22.1892C49.7063 22.0018 49.2153 21.9069 48.72 21.91L38.9433 21.8867Z" stroke="#4C7B67" stroke-width="2" stroke-linecap="round" stroke-linejoin="round"/>
<circle cx="33.7867" cy="19.6467" r="2.33333" fill="#4C7B67"/>
<circle cx="30.2167" cy="16.4733" r="2.33333" fill="#4C7B67"/>
<circle cx="22.2133" cy="19.6467" r="2.33333" fill="#4C7B67"/>
<circle cx="25.7833" cy="16.4733" r="2.33333" fill="#4C7B67"/>
<path d="M28 21.5834V25.48" stroke="#4C7B67" stroke-width="2" stroke-linecap="round" stroke-linejoin="round"/>
</svg>
