<svg width="51" height="35" viewBox="0 0 51 35" fill="none" xmlns="http://www.w3.org/2000/svg">
<path d="M6.29731 12.2066C5.10146 12.4333 3.99313 12.9908 3.09813 13.8157C2.20313 14.6405 1.55731 15.6998 1.23397 16.8732C1.00762 17.6883 0.944662 18.5401 1.04873 19.3796C1.1528 20.2191 1.42184 21.0298 1.84037 21.7649C2.25891 22.5001 2.81867 23.1452 3.48746 23.6632C4.15624 24.1812 4.92086 24.5618 5.73731 24.7832C6.56776 25.0045 7.4338 25.0591 8.28547 24.9439C9.13713 24.8288 9.95756 24.5461 10.6994 24.1122C11.4413 23.6784 12.0899 23.102 12.6079 22.4162C13.1259 21.7304 13.5029 20.9488 13.7173 20.1166C13.8573 19.5799 18.104 20.9332 22.8873 22.2166C27.6706 23.4999 34.344 25.1332 34.204 25.6699C33.9492 26.4955 33.8645 27.3642 33.9548 28.2235C34.0452 29.0827 34.3088 29.9148 34.7297 30.6693C35.1506 31.4239 35.72 32.0853 36.4037 32.6136C37.0873 33.1419 37.871 33.5262 38.7073 33.7432C39.5362 33.961 40.3999 34.0129 41.2489 33.896C42.0979 33.7792 42.9155 33.4958 43.6548 33.0623C44.394 32.6287 45.0404 32.0534 45.5568 31.3695C46.0732 30.6855 46.4494 29.9063 46.664 29.0766C46.9864 27.9208 46.9733 26.6971 46.6262 25.5485C46.2792 24.3999 45.6125 23.3738 44.704 22.5899C45.8281 22.3572 46.8695 21.8282 47.7205 21.0578C48.5715 20.2874 49.2011 19.3035 49.5442 18.208C49.8872 17.1125 49.9311 15.9452 49.6715 14.827C49.4118 13.7088 48.858 12.6804 48.0674 11.8481C47.2767 11.0158 46.278 10.41 45.1746 10.0934C44.0712 9.77682 42.9032 9.7609 41.7915 10.0473C40.6799 10.3337 39.665 10.9121 38.852 11.7225C38.039 12.5329 37.4573 13.5459 37.1673 14.6566C37.0273 15.1932 32.7806 13.8399 27.9973 12.5566C23.214 11.2732 16.5406 9.63991 16.6806 9.10324C16.9102 8.28815 16.9756 7.43556 16.873 6.59499C16.7703 5.75441 16.5017 4.94261 16.0828 4.2067C15.6638 3.47079 15.1028 2.82544 14.4324 2.30814C13.7619 1.79083 12.9954 1.41186 12.1773 1.19324C10.5354 0.784044 8.79877 1.03019 7.33529 1.87953C5.87181 2.72888 4.79653 4.11466 4.33731 5.74324C4.01966 6.89568 4.0352 8.11454 4.3821 9.25851C4.72901 10.4025 5.39308 11.4247 6.29731 12.2066Z" stroke="#4C7B67" stroke-width="2" stroke-linecap="round" stroke-linejoin="round"/>
</svg>
