<svg width="56" height="56" viewBox="0 0 56 56" fill="none" xmlns="http://www.w3.org/2000/svg">
<rect width="56" height="56" rx="4" fill="#4C7B67" fill-opacity="0.1"/>
<path d="M49.91 21.28C45.8967 24.5467 37.6133 26.7867 28 26.7867C18.3867 26.7867 10.1033 24.4534 6.09 21.28C5.3541 20.7765 4.73976 20.1151 4.29172 19.3442C3.84367 18.5732 3.5732 17.712 3.5 16.8234V25.6667C3.5 31.1734 14.4667 35.63 28 35.63C41.5333 35.63 52.5 31.22 52.5 25.6667V16.8234C52.4268 17.712 52.1563 18.5732 51.7083 19.3442C51.2602 20.1151 50.6459 20.7765 49.91 21.28Z" stroke="#4C7B67" stroke-width="2" stroke-linecap="round" stroke-linejoin="round"/>
<path d="M28 6.85999C14.4667 6.85999 3.5 11.3167 3.5 16.8233C3.5732 17.712 3.84367 18.5732 4.29172 19.3441C4.73976 20.1151 5.3541 20.7764 6.09 21.28C10.1033 17.99 18.3867 15.75 28 15.75C37.6133 15.75 45.8967 18.0833 49.91 21.28C50.6459 20.7764 51.2602 20.1151 51.7083 19.3441C52.1563 18.5732 52.4268 17.712 52.5 16.8233C52.5 11.3167 41.5333 6.85999 28 6.85999Z" stroke="#4C7B67" stroke-width="2" stroke-linecap="round" stroke-linejoin="round"/>
<path d="M28 32.13V41.51" stroke="#4C7B67" stroke-width="2" stroke-linecap="round" stroke-linejoin="round"/>
<path d="M28 49.14C30.0748 49.14 31.7567 47.4268 31.7567 45.3134C31.7567 43.1999 30.0748 41.4867 28 41.4867C25.9253 41.4867 24.2433 43.1999 24.2433 45.3134C24.2433 47.4268 25.9253 49.14 28 49.14Z" stroke="#4C7B67" stroke-width="2" stroke-linecap="round" stroke-linejoin="round"/>
</svg>
