<svg width="56" height="56" viewBox="0 0 56 56" fill="none" xmlns="http://www.w3.org/2000/svg">
<rect width="56" height="56" rx="4" fill="#4C7B67" fill-opacity="0.1"/>
<path d="M43.1667 52.5H12.8334C11.9415 52.4929 11.0606 52.3027 10.2454 51.941C9.43009 51.5794 8.69782 51.0542 8.09397 50.3978C7.49012 49.7414 7.02758 48.968 6.73504 48.1255C6.4425 47.283 6.3262 46.3893 6.39336 45.5L7.18669 33.04C7.0693 26.7753 7.63261 20.5164 8.86669 14.3733L9.45003 11.6666H46.6667L47.25 14.5133C48.4841 20.6564 49.0474 26.9153 48.93 33.18L49.7234 45.64C49.7712 46.5278 49.6367 47.416 49.328 48.2499C49.0194 49.0837 48.5433 49.8455 47.9289 50.4882C47.3146 51.131 46.5751 51.6411 45.7561 51.9871C44.937 52.3331 44.0558 52.5076 43.1667 52.5Z" stroke="#4C7B67" stroke-width="2" stroke-linecap="round" stroke-linejoin="round"/>
<path d="M46.55 3.5H9.44995V11.55H46.55V3.5Z" stroke="#4C7B67" stroke-width="2" stroke-linecap="round" stroke-linejoin="round"/>
<path d="M29.6333 39.3167L28 39.06L26.3667 39.3167C25.9563 39.3821 25.5361 39.3468 25.1424 39.2139C24.7486 39.081 24.393 38.8545 24.1061 38.5539C23.8192 38.2532 23.6096 37.8874 23.4953 37.4878C23.381 37.0883 23.3655 36.6669 23.45 36.26L23.6367 35.4667C24.0567 33.4134 25.97 30.8 28 30.8C30.1 30.8 31.9433 33.4367 32.3633 35.4667L32.55 36.26C32.6345 36.6669 32.6189 37.0883 32.5047 37.4878C32.3904 37.8874 32.1808 38.2532 31.8939 38.5539C31.607 38.8545 31.2514 39.081 30.8576 39.2139C30.4639 39.3468 30.0437 39.3821 29.6333 39.3167Z" stroke="#4C7B67" stroke-width="2" stroke-linecap="round" stroke-linejoin="round"/>
<circle cx="36.4934" cy="29.3534" r="2.33333" fill="#4C7B67"/>
<circle cx="31.2667" cy="24.6866" r="2.33333" fill="#4C7B67"/>
<circle cx="19.5067" cy="29.3534" r="2.33333" fill="#4C7B67"/>
<circle cx="24.7334" cy="24.6866" r="2.33333" fill="#4C7B67"/>
</svg>
