<svg width="56" height="56" viewBox="0 0 56 56" fill="none" xmlns="http://www.w3.org/2000/svg">
<rect width="56" height="56" rx="4" fill="#4C7B67" fill-opacity="0.1"/>
<path d="M27.4867 29.68H28.5133C30.9887 29.68 33.3626 30.6634 35.113 32.4137C36.8633 34.1641 37.8467 36.538 37.8467 39.0134V52.5H18.1067V39.0367C18.1036 37.8051 18.3442 36.5851 18.8148 35.447C19.2854 34.3089 19.9766 33.2752 20.8485 32.4054C21.7205 31.5356 22.7559 30.847 23.8952 30.3793C25.0345 29.9115 26.2551 29.6739 27.4867 29.68Z" stroke="#4C7B67" stroke-width="2" stroke-linecap="round" stroke-linejoin="round"/>
<path d="M10.15 45.92H18.1067" stroke="#4C7B67" stroke-width="2" stroke-linecap="round" stroke-linejoin="round"/>
<path d="M37.8933 45.92H45.85" stroke="#4C7B67" stroke-width="2" stroke-linecap="round" stroke-linejoin="round"/>
<path d="M28 11.2233L45.85 24.6167L52.4067 21.8167L28 3.5L3.59332 21.8167L10.15 24.6167L28 11.2233Z" stroke="#4C7B67" stroke-width="2" stroke-linecap="round" stroke-linejoin="round"/>
<path d="M42.21 52.5001H13.79C12.8754 52.5447 11.98 52.2266 11.2985 51.615C10.617 51.0034 10.2042 50.1475 10.15 49.2334V24.6167L28 11.2234L45.85 24.6167V49.2334C45.7958 50.1475 45.3831 51.0034 44.7016 51.615C44.02 52.2266 43.1247 52.5447 42.21 52.5001Z" stroke="#4C7B67" stroke-width="2" stroke-linecap="round" stroke-linejoin="round"/>
</svg>
