<svg width="56" height="56" viewBox="0 0 56 56" fill="none" xmlns="http://www.w3.org/2000/svg">
<rect width="56" height="56" rx="4" fill="#4C7B67" fill-opacity="0.1"/>
<path d="M52.4066 40.0634L49.4433 24.4534C49.0308 22.2709 47.9484 20.2712 46.3468 18.7323C44.7452 17.1934 42.7039 16.1918 40.5067 15.8667C42.1687 18.0939 43.1932 20.7315 43.47 23.4967L44.5433 34.1134C44.6995 35.5798 44.5545 37.0626 44.1171 38.4709C43.6798 39.8793 42.9593 41.1834 42 42.3034C42.3094 43.6927 43.158 44.9021 44.3592 45.6657C45.5604 46.4293 47.0157 46.6845 48.405 46.375C49.7943 46.0656 51.0038 45.217 51.7673 44.0158C52.5309 42.8146 52.7861 41.3593 52.4767 39.97L52.4066 40.0634Z" stroke="#4C7B67" stroke-width="2" stroke-linecap="round" stroke-linejoin="round"/>
<path d="M11.4567 34.1134L12.53 23.4967C12.8068 20.7315 13.8312 18.0939 15.4933 15.8667C13.2961 16.1918 11.2548 17.1934 9.65317 18.7323C8.05154 20.2712 6.96921 22.2709 6.55666 24.4534L3.59333 40.0634C3.28391 41.4527 3.53906 42.908 4.30265 44.1091C5.06623 45.3103 6.27571 46.1589 7.665 46.4684C9.05429 46.7778 10.5096 46.5226 11.7108 45.759C12.9119 44.9955 13.7606 43.786 14.07 42.3967C13.0861 41.2712 12.346 39.9542 11.8962 38.5286C11.4465 37.103 11.2968 35.5997 11.4567 34.1134Z" stroke="#4C7B67" stroke-width="2" stroke-linecap="round" stroke-linejoin="round"/>
<path d="M33.6467 46.06H22.3533C20.8296 46.0671 19.3212 45.7545 17.9258 45.1424C16.5303 44.5304 15.2787 43.6325 14.2518 42.5066C13.225 41.3808 12.4456 40.0521 11.9642 38.6064C11.4827 37.1607 11.3098 35.63 11.4567 34.1133L12.53 23.4967C12.9019 19.6556 14.6939 16.0917 17.5552 13.5023C20.4164 10.9129 24.141 9.48451 28 9.49666C31.859 9.48451 35.5836 10.9129 38.4448 13.5023C41.3061 16.0917 43.0981 19.6556 43.47 23.4967L44.5433 34.1133C44.6902 35.63 44.5173 37.1607 44.0358 38.6064C43.5544 40.0521 42.775 41.3808 41.7482 42.5066C40.7213 43.6325 39.4697 44.5304 38.0742 45.1424C36.6788 45.7545 35.1704 46.0671 33.6467 46.06Z" stroke="#4C7B67" stroke-width="2" stroke-linecap="round" stroke-linejoin="round"/>
<path d="M28 37.66L24.6633 33.9034C24.6633 33.1298 24.9706 32.3879 25.5176 31.841C26.0646 31.294 26.8064 30.9867 27.58 30.9867H28.42C29.1935 30.9867 29.9354 31.294 30.4824 31.841C31.0294 32.3879 31.3367 33.1298 31.3367 33.9034L28 37.66Z" stroke="#4C7B67" stroke-width="2" stroke-linecap="round" stroke-linejoin="round"/>
<path d="M28 37.66V46.06" stroke="#4C7B67" stroke-width="2" stroke-linecap="round" stroke-linejoin="round"/>
<path d="M20.65 23.66V25.62" stroke="#4C7B67" stroke-width="2" stroke-linecap="round" stroke-linejoin="round"/>
<path d="M35.35 23.66V25.62" stroke="#4C7B67" stroke-width="2" stroke-linecap="round" stroke-linejoin="round"/>
</svg>
