<svg width="56" height="56" viewBox="0 0 56 56" fill="none" xmlns="http://www.w3.org/2000/svg">
<rect width="56" height="56" rx="4" fill="#4C7B67" fill-opacity="0.1"/>
<path d="M34.2067 29.19L29.2133 34.1833L13.1367 18.1767L18.1533 13.2067L34.2067 29.19Z" stroke="#4C7B67" stroke-width="2" stroke-linecap="round" stroke-linejoin="round"/>
<path d="M9.49667 13.4867L13.4167 9.56665" stroke="#4C7B67" stroke-width="2" stroke-linecap="round" stroke-linejoin="round"/>
<path d="M3.5 3.59338L11.4567 11.5267" stroke="#4C7B67" stroke-width="2" stroke-linecap="round" stroke-linejoin="round"/>
<path d="M40.3433 30.8L30.8233 40.2733L26.95 36.4233L36.47 26.95L40.3433 30.8Z" stroke="#4C7B67" stroke-width="2" stroke-linecap="round" stroke-linejoin="round"/>
<path d="M52.0333 45.3133L45.3833 51.94C44.849 52.2915 44.2002 52.4245 43.5706 52.3116C42.9411 52.1987 42.3789 51.8486 42 51.3333C41.4858 50.947 41.1406 50.377 41.0363 49.7424C40.932 49.1077 41.0766 48.4573 41.44 47.9267L48.09 41.3233C48.6243 40.9585 49.2785 40.8132 49.917 40.9175C50.5555 41.0217 51.1295 41.3675 51.52 41.8833C52.0383 42.2735 52.3826 42.8517 52.4786 43.4933C52.5746 44.1349 52.4147 44.7885 52.0333 45.3133Z" stroke="#4C7B67" stroke-width="2" stroke-linecap="round" stroke-linejoin="round"/>
<path d="M35.5833 35.5366L44.7533 44.6833" stroke="#4C7B67" stroke-width="2" stroke-linecap="round" stroke-linejoin="round"/>
</svg>
