<svg width="642" height="583" viewBox="0 0 642 583" fill="none" xmlns="http://www.w3.org/2000/svg">
<g clip-path="url(#clip0_818_4072)">
<path d="M56.8861 52.4585L44.2695 84.7465L46.6718 88.9075L59.2861 56.6154L93.559 61.8372L91.1566 57.6762L56.8861 52.4585ZM60.6361 58.9537L50.6408 84.5321L65.2365 109.813L74.7764 104.305C72.8939 101.021 70.1993 96.1896 68.7217 91.4271C67.9193 88.8187 67.4586 86.216 67.7838 83.8496C68.1134 81.4672 69.3175 79.3106 71.6212 77.9805C73.925 76.6505 76.3947 76.686 78.6227 77.5918C80.8346 78.4933 82.8583 80.1937 84.7161 82.1927C88.1017 85.8537 90.9384 90.6029 92.8411 93.8751L102.381 88.3672L87.7852 63.0867L60.6361 58.9537ZM57.5399 75.1768C57.9504 74.9535 58.417 74.7865 58.8968 74.6911C59.4307 74.5827 59.9619 74.5668 60.4304 74.6454C60.899 74.724 61.2863 74.8938 61.5486 75.1357L74.1939 67.835C74.1155 67.4868 74.1621 67.0665 74.3283 66.6214C74.4946 66.1764 74.7739 65.7243 75.1348 65.3161C75.4572 64.9483 75.8351 64.6277 76.2338 64.3839C76.6635 64.125 77.1006 63.965 77.4991 63.9208C77.8975 63.8765 78.2424 63.9497 78.4973 64.1325C78.8263 64.3659 78.9891 64.7677 78.9579 65.2694C78.9268 65.7711 78.7036 66.3415 78.3264 66.8834C78.9185 66.8741 79.4477 66.9894 79.8369 67.2125C80.2261 67.4356 80.4551 67.7548 80.4905 68.1238C80.5136 68.3519 80.462 68.5932 80.3386 68.8339C80.2153 69.0747 80.0226 69.31 79.7717 69.5266C79.5208 69.7431 79.2165 69.9365 78.8765 70.0957C78.5364 70.2549 78.1672 70.3767 77.79 70.4542C77.1902 70.5755 76.5959 70.5794 76.0908 70.4656C75.5856 70.3519 75.1952 70.126 74.9746 69.8199L62.8773 76.8043C63.032 77.1484 63.0324 77.5995 62.8784 78.0938C62.7244 78.5882 62.4237 79.1009 62.0189 79.5597C61.7632 79.8476 61.4731 80.1064 61.1652 80.3214C60.8573 80.5363 60.5376 80.703 60.2247 80.8121C59.9117 80.9211 59.6115 80.9703 59.3413 80.9567C59.0712 80.9432 58.8364 80.8672 58.6504 80.7332C58.3486 80.518 58.1866 80.1601 58.188 79.7114C58.1894 79.2628 58.3541 78.747 58.6582 78.2388C58.0004 78.2945 57.3948 78.2026 56.9447 77.9787C56.4947 77.7549 56.2281 77.413 56.1904 77.0114C56.1596 76.6992 56.2687 76.3639 56.5062 76.041C56.7437 75.7181 57.1009 75.4195 57.5399 75.1768Z" fill="#F9F0E6"/>
</g>
<g clip-path="url(#clip1_818_4072)">
<path d="M43.6722 520.228L11.9199 534.138L10.6763 538.779L42.4299 524.864L62.9721 552.791L64.2157 548.15L43.6722 520.228ZM41.7311 527.472L16.5767 538.491L9.02145 566.688L19.6617 569.539C20.6527 565.886 22.1635 560.564 24.4863 556.152C25.7634 553.74 27.278 551.574 29.1812 550.131C31.0988 548.679 33.4752 548.006 36.0447 548.694C38.6143 549.383 40.3355 551.154 41.2704 553.37C42.197 555.572 42.4256 558.205 42.3257 560.932C42.131 565.915 40.7787 571.279 39.8103 574.938L50.4506 577.789L58.0059 549.592L41.7311 527.472ZM28.0702 536.755C28.5185 536.887 28.9665 537.099 29.3732 537.371C29.8274 537.671 30.2142 538.036 30.4899 538.423C30.7657 538.81 30.9195 539.204 30.9339 539.56L45.0379 543.339C45.2286 543.038 45.5588 542.773 45.991 542.576C46.4233 542.379 46.9405 542.257 47.4843 542.223C47.9724 542.191 48.4663 542.232 48.9206 542.341C49.4075 542.462 49.8297 542.658 50.1428 542.909C50.4558 543.159 50.6479 543.455 50.6989 543.764C50.7665 544.162 50.5975 544.561 50.2207 544.894C49.8439 545.227 49.2827 545.472 48.6329 545.589C49.0582 546.001 49.3508 546.456 49.4683 546.889C49.5857 547.322 49.5219 547.71 49.286 547.996C49.1411 548.173 48.934 548.308 48.6765 548.391C48.4191 548.474 48.1164 548.504 47.7858 548.48C47.4553 548.455 47.1034 548.377 46.7504 548.249C46.3973 548.121 46.0501 547.946 45.7286 547.734C45.2188 547.396 44.7957 546.978 44.519 546.541C44.2423 546.103 44.1259 545.667 44.1863 545.295L30.6936 541.679C30.5596 542.032 30.241 542.351 29.7825 542.592C29.3241 542.833 28.7489 542.983 28.1382 543.021C27.7538 543.044 27.3657 543.022 26.996 542.956C26.6263 542.89 26.2824 542.782 25.984 542.638C25.6855 542.494 25.4385 542.316 25.2571 542.115C25.0756 541.915 24.9633 541.695 24.9266 541.469C24.8653 541.103 25.0039 540.736 25.3221 540.419C25.6403 540.103 26.1215 539.855 26.6958 539.711C26.1913 539.285 25.8281 538.792 25.6682 538.315C25.5082 537.838 25.5614 537.408 25.8188 537.098C26.0177 536.855 26.3319 536.695 26.7283 536.635C27.1246 536.574 27.5882 536.616 28.0702 536.755Z" fill="#F9F0E6"/>
</g>
<g clip-path="url(#clip2_818_4072)">
<path d="M566.391 10.8798L534.639 24.7896L533.395 29.4306L565.149 15.5163L585.691 43.4432L586.934 38.8022L566.391 10.8798ZM564.45 18.1243L539.296 29.1432L531.74 57.34L542.381 60.191C543.372 56.5379 544.882 51.2163 547.205 46.8039C548.482 44.3921 549.997 42.2259 551.9 40.7826C553.818 39.331 556.194 38.6575 558.764 39.346C561.333 40.0345 563.054 41.806 563.989 44.0219C564.916 46.2234 565.144 48.8567 565.045 51.5839C564.85 56.5666 563.497 61.9306 562.529 65.5898L573.169 68.4409L580.725 40.2441L564.45 18.1243ZM550.789 27.4064C551.237 27.5388 551.685 27.7506 552.092 28.0225C552.546 28.3233 552.933 28.6877 553.209 29.0746C553.485 29.4615 553.638 29.8554 553.653 30.212L567.757 33.9911C567.947 33.6895 568.278 33.4252 568.71 33.2281C569.142 33.0309 569.659 32.9088 570.203 32.8753C570.691 32.8433 571.185 32.8838 571.639 32.9933C572.126 33.1141 572.549 33.3101 572.862 33.5605C573.175 33.8109 573.367 34.1066 573.418 34.4161C573.485 34.8138 573.316 35.213 572.939 35.5457C572.563 35.8784 572.002 36.1239 571.352 36.2404C571.777 36.6525 572.07 37.1082 572.187 37.5411C572.305 37.9741 572.241 38.3618 572.005 38.6477C571.86 38.8253 571.653 38.9595 571.395 39.0425C571.138 39.1255 570.835 39.1557 570.505 39.1314C570.174 39.1071 569.822 39.0287 569.469 38.9008C569.116 38.7729 568.769 38.598 568.447 38.3861C567.938 38.0477 567.515 37.6302 567.238 37.1926C566.961 36.755 566.845 36.3192 566.905 35.9467L553.412 32.3313C553.278 32.6841 552.96 33.0033 552.501 33.244C552.043 33.4846 551.468 33.6346 550.857 33.6727C550.473 33.6955 550.084 33.6734 549.715 33.6076C549.345 33.5419 549.001 33.4338 548.703 33.2896C548.404 33.1454 548.157 32.9679 547.976 32.7673C547.794 32.5667 547.682 32.3469 547.645 32.1206C547.584 31.755 547.723 31.3874 548.041 31.0712C548.359 30.755 548.84 30.5067 549.415 30.3624C548.91 29.9366 548.547 29.4434 548.387 28.9669C548.227 28.4903 548.28 28.0601 548.538 27.7495C548.737 27.5069 549.051 27.347 549.447 27.2866C549.843 27.2262 550.307 27.2676 550.789 27.4064Z" fill="#F9F0E6"/>
</g>
<g clip-path="url(#clip3_818_4072)">
<path d="M598.26 322.207L577.716 350.129L578.96 354.77L599.502 326.844L631.256 340.758L630.012 336.117L598.26 322.207ZM600.201 329.452L583.926 351.571L591.481 379.768L602.122 376.917C601.153 373.258 599.801 367.894 599.606 362.911C599.506 360.184 599.735 357.551 600.661 355.349C601.596 353.133 603.318 351.362 605.887 350.673C608.457 349.985 610.833 350.658 612.751 352.11C614.654 353.553 616.168 355.719 617.446 358.131C619.768 362.544 621.279 367.865 622.27 371.518L632.91 368.667L625.355 340.47L600.201 329.452ZM593.011 344.321C593.466 344.211 593.96 344.17 594.448 344.203C594.991 344.236 595.509 344.358 595.941 344.555C596.373 344.752 596.703 345.017 596.894 345.318L610.998 341.539C611.012 341.183 611.166 340.789 611.442 340.402C611.718 340.015 612.105 339.651 612.559 339.35C612.965 339.078 613.413 338.866 613.862 338.734C614.344 338.595 614.807 338.553 615.204 338.614C615.6 338.674 615.914 338.834 616.113 339.077C616.37 339.387 616.424 339.818 616.264 340.294C616.104 340.771 615.741 341.264 615.236 341.69C615.81 341.834 616.292 342.082 616.61 342.398C616.928 342.715 617.067 343.082 617.005 343.448C616.969 343.674 616.856 343.894 616.675 344.094C616.493 344.295 616.246 344.473 615.948 344.617C615.65 344.761 615.306 344.869 614.936 344.935C614.566 345.001 614.178 345.023 613.794 345C613.183 344.962 612.608 344.812 612.149 344.571C611.691 344.331 611.372 344.011 611.238 343.659L597.746 347.274C597.806 347.646 597.69 348.082 597.413 348.52C597.136 348.957 596.713 349.375 596.203 349.713C595.882 349.925 595.535 350.1 595.182 350.228C594.828 350.356 594.477 350.434 594.146 350.459C593.816 350.483 593.513 350.453 593.255 350.37C592.998 350.287 592.791 350.153 592.646 349.975C592.41 349.689 592.346 349.301 592.464 348.868C592.581 348.435 592.874 347.98 593.299 347.568C592.649 347.451 592.088 347.206 591.711 346.873C591.334 346.54 591.165 346.141 591.233 345.743C591.284 345.434 591.476 345.138 591.789 344.888C592.102 344.637 592.524 344.441 593.011 344.321Z" fill="#F9F0E6"/>
</g>
<defs>
<clipPath id="clip0_818_4072">
<rect width="60" height="60" fill="white" transform="translate(29.2928 64.6655) rotate(-30)"/>
</clipPath>
<clipPath id="clip1_818_4072">
<rect width="60" height="60" fill="white" transform="translate(15.5291 509.348) rotate(15)"/>
</clipPath>
<clipPath id="clip2_818_4072">
<rect width="60" height="60" fill="white" transform="translate(538.248) rotate(15)"/>
</clipPath>
<clipPath id="clip3_818_4072">
<rect width="60" height="60" fill="white" transform="translate(568.447 326.856) rotate(-15)"/>
</clipPath>
</defs>
</svg>
