<svg width="429" height="630" viewBox="0 0 429 630" fill="none" xmlns="http://www.w3.org/2000/svg">
<g clip-path="url(#clip0_818_4081)">
<path d="M27.5933 30.793L14.9766 63.081L17.379 67.2419L29.9933 34.9499L64.2661 40.1716L61.8638 36.0106L27.5933 30.793ZM31.3433 37.2882L21.348 62.8665L35.9437 88.147L45.4835 82.6392C43.6011 79.3553 40.9065 74.5241 39.4289 69.7616C38.6265 67.1531 38.1658 64.5504 38.491 62.1841C38.8205 59.8017 40.0247 57.6451 42.3284 56.315C44.6322 54.9849 47.1019 55.0204 49.3299 55.9263C51.5418 56.8278 53.5655 58.5281 55.4233 60.5272C58.8089 64.1882 61.6456 68.9374 63.5483 72.2095L73.0881 66.7017L58.4924 41.4212L31.3433 37.2882ZM28.2471 53.5113C28.6576 53.288 29.1242 53.121 29.604 53.0256C30.1379 52.9172 30.669 52.9013 31.1376 52.9799C31.6062 53.0584 31.9935 53.2283 32.2558 53.4702L44.9011 46.1694C44.8227 45.8213 44.8693 45.401 45.0355 44.9559C45.2018 44.5108 45.4811 44.0587 45.8419 43.6506C46.1644 43.2828 46.5423 42.9622 46.941 42.7183C47.3707 42.4595 47.8078 42.2995 48.2063 42.2553C48.6047 42.211 48.9496 42.2842 49.2045 42.467C49.5335 42.7004 49.6963 43.1022 49.6651 43.6039C49.634 44.1056 49.4108 44.676 49.0336 45.2178C49.6257 45.2086 50.1549 45.3238 50.5441 45.5469C50.9333 45.77 51.1622 46.0893 51.1977 46.4583C51.2208 46.6863 51.1692 46.9277 51.0458 47.1684C50.9225 47.4091 50.7298 47.6445 50.4789 47.8611C50.228 48.0776 49.9237 48.271 49.5837 48.4302C49.2436 48.5894 48.8744 48.7112 48.4972 48.7887C47.8974 48.9099 47.3031 48.9139 46.798 48.8001C46.2928 48.6863 45.9024 48.4605 45.6818 48.1544L33.5845 55.1388C33.7392 55.4829 33.7396 55.9339 33.5856 56.4283C33.4316 56.9226 33.1309 57.4354 32.7261 57.8942C32.4704 58.1821 32.1803 58.4409 31.8724 58.6558C31.5644 58.8707 31.2448 59.0375 30.9318 59.1465C30.6189 59.2556 30.3187 59.3047 30.0485 59.2912C29.7784 59.2777 29.5436 59.2017 29.3576 59.0676C29.0558 58.8525 28.8938 58.4945 28.8952 58.0459C28.8966 57.5973 29.0613 57.0814 29.3654 56.5733C28.7076 56.629 28.102 56.5371 27.6519 56.3132C27.2019 56.0894 26.9353 55.7475 26.8976 55.3459C26.8668 55.0337 26.9759 54.6984 27.2134 54.3755C27.4509 54.0526 27.8081 53.754 28.2471 53.5113Z" fill="#F9F0E6"/>
</g>
<g clip-path="url(#clip1_818_4081)">
<path d="M401.368 17.793L367.098 23.0106L364.695 27.1716L398.968 21.9499L411.583 54.2419L413.985 50.081L401.368 17.793ZM397.618 24.2882L370.469 28.4212L355.873 53.7017L365.413 59.2095C367.316 55.9374 370.153 51.1882 373.538 47.5272C375.396 45.5281 377.42 43.8278 379.632 42.9263C381.86 42.0204 384.329 41.9849 386.633 43.315C388.937 44.6451 390.141 46.8017 390.47 49.1841C390.796 51.5504 390.335 54.1531 389.533 56.7616C388.055 61.5241 385.36 66.3553 383.478 69.6392L393.018 75.147L407.613 49.8665L397.618 24.2882ZM382.02 29.7183C382.419 29.9622 382.797 30.2828 383.12 30.6506C383.48 31.0587 383.76 31.5108 383.926 31.9559C384.092 32.401 384.139 32.8213 384.06 33.1694L396.706 40.4702C396.968 40.2283 397.355 40.0584 397.824 39.9799C398.292 39.9013 398.824 39.9172 399.358 40.0256C399.837 40.121 400.304 40.288 400.714 40.5113C401.153 40.754 401.511 41.0526 401.748 41.3755C401.986 41.6984 402.095 42.0337 402.064 42.3459C402.026 42.7475 401.76 43.0894 401.31 43.3132C400.86 43.5371 400.254 43.629 399.596 43.5733C399.9 44.0814 400.065 44.5973 400.066 45.0459C400.068 45.4945 399.906 45.8525 399.604 46.0676C399.418 46.2017 399.183 46.2777 398.913 46.2912C398.643 46.3047 398.343 46.2556 398.03 46.1465C397.717 46.0375 397.397 45.8707 397.089 45.6558C396.781 45.4409 396.491 45.1821 396.235 44.8942C395.831 44.4354 395.53 43.9226 395.376 43.4283C395.222 42.9339 395.222 42.4829 395.377 42.1388L383.28 35.1544C383.059 35.4605 382.669 35.6863 382.164 35.8001C381.658 35.9139 381.064 35.9099 380.464 35.7887C380.087 35.7112 379.718 35.5894 379.378 35.4302C379.038 35.271 378.734 35.0776 378.483 34.8611C378.232 34.6445 378.039 34.4091 377.916 34.1684C377.792 33.9277 377.741 33.6863 377.764 33.4583C377.799 33.0893 378.028 32.77 378.417 32.5469C378.807 32.3238 379.336 32.2086 379.928 32.2178C379.551 31.676 379.328 31.1056 379.296 30.6039C379.265 30.1022 379.428 29.7004 379.757 29.467C380.012 29.2842 380.357 29.211 380.755 29.2553C381.154 29.2995 381.591 29.4595 382.02 29.7183Z" fill="#F9F0E6"/>
</g>
<g clip-path="url(#clip2_818_4081)">
<path d="M355.593 565.793L342.977 598.081L345.379 602.242L357.993 569.95L392.266 575.172L389.864 571.011L355.593 565.793ZM359.343 572.288L349.348 597.867L363.944 623.147L373.484 617.639C371.601 614.355 368.907 609.524 367.429 604.762C366.627 602.153 366.166 599.55 366.491 597.184C366.821 594.802 368.025 592.645 370.328 591.315C372.632 589.985 375.102 590.02 377.33 590.926C379.542 591.828 381.565 593.528 383.423 595.527C386.809 599.188 389.646 603.937 391.548 607.21L401.088 601.702L386.492 576.421L359.343 572.288ZM356.247 588.511C356.658 588.288 357.124 588.121 357.604 588.026C358.138 587.917 358.669 587.901 359.138 587.98C359.606 588.058 359.993 588.228 360.256 588.47L372.901 581.169C372.823 580.821 372.869 580.401 373.036 579.956C373.202 579.511 373.481 579.059 373.842 578.651C374.164 578.283 374.542 577.962 374.941 577.718C375.371 577.46 375.808 577.3 376.206 577.255C376.605 577.211 376.95 577.284 377.205 577.467C377.534 577.7 377.696 578.102 377.665 578.604C377.634 579.106 377.411 579.676 377.034 580.218C377.626 580.209 378.155 580.324 378.544 580.547C378.933 580.77 379.162 581.089 379.198 581.458C379.221 581.686 379.169 581.928 379.046 582.168C378.922 582.409 378.73 582.645 378.479 582.861C378.228 583.078 377.924 583.271 377.584 583.43C377.244 583.589 376.874 583.711 376.497 583.789C375.897 583.91 375.303 583.914 374.798 583.8C374.293 583.686 373.902 583.46 373.682 583.154L361.584 590.139C361.739 590.483 361.74 590.934 361.586 591.428C361.432 591.923 361.131 592.435 360.726 592.894C360.47 593.182 360.18 593.441 359.872 593.656C359.564 593.871 359.245 594.038 358.932 594.147C358.619 594.256 358.319 594.305 358.049 594.291C357.778 594.278 357.544 594.202 357.358 594.068C357.056 593.852 356.894 593.495 356.895 593.046C356.897 592.597 357.061 592.081 357.365 591.573C356.708 591.629 356.102 591.537 355.652 591.313C355.202 591.089 354.935 590.747 354.898 590.346C354.867 590.034 354.976 589.698 355.213 589.375C355.451 589.053 355.808 588.754 356.247 588.511Z" fill="#F9F0E6"/>
</g>
<g clip-path="url(#clip3_818_4081)">
<path d="M63.2251 506.901L31.4728 520.811L30.2292 525.452L61.9828 511.538L82.525 539.465L83.7686 534.824L63.2251 506.901ZM61.284 514.146L36.1296 525.165L28.5743 553.361L39.2146 556.213C40.2056 552.559 41.7164 547.238 44.0392 542.825C45.3163 540.414 46.8309 538.247 48.7341 536.804C50.6517 535.352 53.0281 534.679 55.5976 535.367C58.1671 536.056 59.8884 537.827 60.8233 540.043C61.7499 542.245 61.9785 544.878 61.8786 547.605C61.6839 552.588 60.3316 557.952 59.3632 561.611L70.0035 564.462L77.5588 536.266L61.284 514.146ZM47.6231 523.428C48.0714 523.56 48.5194 523.772 48.926 524.044C49.3803 524.345 49.7671 524.709 50.0428 525.096C50.3186 525.483 50.4724 525.877 50.4868 526.233L64.5908 530.013C64.7815 529.711 65.1117 529.447 65.5439 529.25C65.9762 529.052 66.4934 528.93 67.0372 528.897C67.5253 528.865 68.0192 528.905 68.4735 529.015C68.9604 529.136 69.3826 529.332 69.6956 529.582C70.0087 529.832 70.2008 530.128 70.2518 530.438C70.3194 530.835 70.1504 531.234 69.7736 531.567C69.3968 531.9 68.8356 532.145 68.1858 532.262C68.6111 532.674 68.9037 533.13 69.0211 533.563C69.1386 533.996 69.0748 534.383 68.8389 534.669C68.694 534.847 68.4868 534.981 68.2294 535.064C67.972 535.147 67.6693 535.177 67.3387 535.153C67.0082 535.129 66.6563 535.05 66.3033 534.922C65.9502 534.794 65.603 534.619 65.2815 534.408C64.7717 534.069 64.3486 533.652 64.0719 533.214C63.7952 532.776 63.6788 532.341 63.7392 531.968L50.2464 528.353C50.1125 528.706 49.7939 529.025 49.3354 529.265C48.877 529.506 48.3018 529.656 47.6911 529.694C47.3067 529.717 46.9186 529.695 46.5489 529.629C46.1792 529.563 45.8353 529.455 45.5368 529.311C45.2384 529.167 44.9914 528.989 44.81 528.789C44.6285 528.588 44.5162 528.368 44.4795 528.142C44.4182 527.777 44.5568 527.409 44.875 527.093C45.1932 526.776 45.6744 526.528 46.2487 526.384C45.7442 525.958 45.381 525.465 45.221 524.988C45.0611 524.512 45.1143 524.082 45.3717 523.771C45.5706 523.528 45.8848 523.368 46.2811 523.308C46.6774 523.248 47.1411 523.289 47.6231 523.428Z" fill="#F9F0E6"/>
</g>
<defs>
<clipPath id="clip0_818_4081">
<rect width="60" height="60" fill="white" transform="translate(0 43) rotate(-30)"/>
</clipPath>
<clipPath id="clip1_818_4081">
<rect width="60" height="60" fill="white" transform="translate(377) rotate(30)"/>
</clipPath>
<clipPath id="clip2_818_4081">
<rect width="60" height="60" fill="white" transform="translate(328 578) rotate(-30)"/>
</clipPath>
<clipPath id="clip3_818_4081">
<rect width="60" height="60" fill="white" transform="translate(35.082 496.021) rotate(15)"/>
</clipPath>
</defs>
</svg>
