<svg width="40" height="40" viewBox="0 0 40 40" fill="none" xmlns="http://www.w3.org/2000/svg">
<g opacity="0.3" clip-path="url(#clip0_776_4019)">
<path d="M13.6413 30.2883C13.3621 28.8079 14.0079 27.6031 14.6308 26.439C15.1727 25.4257 15.6841 24.4685 15.6915 23.2759C15.7048 19.9765 15.635 18.0305 17.9919 16.6697C20.3489 15.3089 22.0019 16.3415 24.8689 17.9767C25.907 18.5683 26.9962 18.6027 28.1462 18.6405C29.466 18.6836 30.8295 18.7263 31.9721 19.705C32.3964 20.0508 32.7529 20.4724 33.0234 20.9483C34.1772 22.9466 33.5243 25.4917 31.7608 26.5098C29.9974 27.5279 27.1609 27.9799 25.1767 29.1254C23.1925 30.271 21.4152 32.4829 19.6297 33.5137C17.8442 34.5446 15.3411 33.8216 14.1874 31.8233C13.9121 31.3497 13.727 30.8293 13.6413 30.2883Z" fill="#EACCAA"/>
<path d="M29.7392 16.1661C28.2221 17.0419 26.0794 16.1708 24.9532 14.2202C23.8271 12.2697 24.144 9.97843 25.6611 9.10254C27.1782 8.22665 29.3209 9.09782 30.4471 11.0484C31.5732 12.9989 31.2563 15.2902 29.7392 16.1661Z" fill="#EACCAA"/>
<path d="M21.5266 14.6289C20.0095 15.5048 17.8668 14.6337 16.7406 12.6831C15.6145 10.7326 15.9314 8.44132 17.4485 7.56543C18.9656 6.68954 21.1083 7.56071 22.2345 9.51125C23.3606 11.4618 23.0437 13.7531 21.5266 14.6289Z" fill="#EACCAA"/>
<path d="M14.4631 18.7071C12.946 19.583 10.8033 18.7118 9.67711 16.7613C8.55097 14.8107 8.86789 12.5194 10.385 11.6436C11.9021 10.7677 14.0448 11.6388 15.171 13.5894C16.2971 15.5399 15.9802 17.8312 14.4631 18.7071Z" fill="#EACCAA"/>
<path d="M11.688 26.5879C10.1709 27.4638 8.02817 26.5926 6.90203 24.6421C5.77588 22.6916 6.0928 20.4003 7.60989 19.5244C9.12697 18.6485 11.2697 19.5197 12.3959 21.4702C13.522 23.4208 13.2051 25.712 11.688 26.5879Z" fill="#EACCAA"/>
</g>
<defs>
<clipPath id="clip0_776_4019">
<rect width="29" height="29" fill="white" transform="matrix(-0.866025 0.5 0.5 0.866025 25.1147 0)"/>
</clipPath>
</defs>
</svg>
