<svg width="395" height="436" viewBox="0 0 395 436" fill="none" xmlns="http://www.w3.org/2000/svg">
<g opacity="0.3" clip-path="url(#clip0_786_4061)">
<path d="M23.7494 30.1356C24.4023 31.4933 24.0903 32.8242 23.7899 34.1098C23.5287 35.2288 23.2824 36.2858 23.584 37.4397C24.4251 40.6301 24.9962 42.4917 23.0718 44.4161C21.1473 46.3406 19.2833 45.7711 16.0909 44.9336C14.935 44.6308 13.8741 44.8795 12.7534 45.1407C11.4674 45.4406 10.1393 45.7522 8.78238 45.1026C8.28298 44.8784 7.82954 44.5635 7.44507 44.1738C5.8134 42.5422 5.78536 39.9148 7.22519 38.475C8.66503 37.0351 11.288 35.8645 12.908 34.2444C14.5281 32.6243 15.6723 30.0278 17.1302 28.57C18.5881 27.1121 21.193 27.1626 22.8246 28.7943C23.2131 29.1804 23.5266 29.6352 23.7494 30.1356Z" fill="#EACCAA"/>
<path d="M11.8551 47.9429C13.0938 46.7042 15.389 46.9911 16.9816 48.5837C18.5742 50.1764 18.8611 52.4716 17.6224 53.7103C16.3837 54.949 14.0885 54.6621 12.4959 53.0695C10.9033 51.4768 10.6164 49.1816 11.8551 47.9429Z" fill="#EACCAA"/>
<path d="M20.1857 47.3022C21.4244 46.0635 23.7196 46.3504 25.3122 47.943C26.9048 49.5356 27.1917 51.8308 25.953 53.0695C24.7143 54.3082 22.4191 54.0213 20.8265 52.4287C19.2339 50.8361 18.947 48.5409 20.1857 47.3022Z" fill="#EACCAA"/>
<path d="M25.953 41.5349C27.1917 40.2962 29.4869 40.5831 31.0796 42.1757C32.6722 43.7683 32.9591 46.0635 31.7204 47.3022C30.4817 48.5409 28.1865 48.254 26.5938 46.6614C25.0012 45.0688 24.7143 42.7735 25.953 41.5349Z" fill="#EACCAA"/>
<path d="M26.5938 33.2042C27.8325 31.9655 30.1278 32.2524 31.7204 33.845C33.313 35.4376 33.5999 37.7328 32.3612 38.9715C31.1225 40.2102 28.8273 39.9233 27.2347 38.3307C25.6421 36.7381 25.3551 34.4429 26.5938 33.2042Z" fill="#EACCAA"/>
</g>
<g opacity="0.3" clip-path="url(#clip1_786_4061)">
<path d="M374.619 19.9069C373.477 20.8889 372.11 20.932 370.791 20.9746C369.642 21.012 368.557 21.0476 367.521 21.6376C364.657 23.2757 363.007 24.3092 360.65 22.9484C358.293 21.5876 358.36 19.6398 358.343 16.3393C358.336 15.1445 357.822 14.184 357.279 13.1692C356.657 12.0046 356.012 10.8024 356.288 9.32359C356.376 8.78319 356.562 8.26369 356.839 7.79147C357.993 5.79308 360.524 5.08599 362.287 6.10411C364.05 7.12223 365.86 9.35279 367.844 10.4983C369.828 11.6439 372.633 12.0771 374.418 13.108C376.204 14.1389 376.829 16.6681 375.675 18.6665C375.403 19.1416 375.045 19.5622 374.619 19.9069Z" fill="#EACCAA"/>
<path d="M354.34 13.0268C355.857 13.9027 356.174 16.194 355.048 18.1445C353.922 20.095 351.779 20.9662 350.262 20.0903C348.745 19.2144 348.428 16.9232 349.554 14.9726C350.68 13.0221 352.823 12.1509 354.34 13.0268Z" fill="#EACCAA"/>
<path d="M357.115 20.9077C358.632 21.7836 358.949 24.0748 357.823 26.0254C356.697 27.9759 354.554 28.8471 353.037 27.9712C351.52 27.0953 351.203 24.804 352.329 22.8535C353.455 20.903 355.598 20.0318 357.115 20.9077Z" fill="#EACCAA"/>
<path d="M364.178 24.9858C365.696 25.8617 366.012 28.153 364.886 30.1035C363.76 32.054 361.617 32.9252 360.1 32.0493C358.583 31.1734 358.266 28.8822 359.392 26.9316C360.519 24.9811 362.661 24.1099 364.178 24.9858Z" fill="#EACCAA"/>
<path d="M372.391 23.4487C373.908 24.3246 374.225 26.6158 373.099 28.5664C371.973 30.5169 369.83 31.3881 368.313 30.5122C366.796 29.6363 366.479 27.345 367.605 25.3945C368.731 23.444 370.874 22.5728 372.391 23.4487Z" fill="#EACCAA"/>
</g>
<g opacity="0.3" clip-path="url(#clip2_786_4061)">
<path d="M377.94 173.974C376.46 174.253 375.255 173.607 374.091 172.984C373.078 172.443 372.12 171.931 370.928 171.924C367.628 171.91 365.682 171.98 364.322 169.623C362.961 167.266 363.993 165.613 365.629 162.746C366.22 161.708 366.255 160.619 366.292 159.469C366.335 158.149 366.378 156.786 367.357 155.643C367.703 155.219 368.124 154.862 368.6 154.592C370.598 153.438 373.144 154.091 374.162 155.854C375.18 157.618 375.632 160.454 376.777 162.439C377.923 164.423 380.135 166.2 381.166 167.986C382.196 169.771 381.473 172.274 379.475 173.428C379.002 173.703 378.481 173.888 377.94 173.974Z" fill="#EACCAA"/>
<path d="M363.818 157.876C364.694 159.393 363.823 161.536 361.872 162.662C359.922 163.788 357.63 163.471 356.754 161.954C355.879 160.437 356.75 158.294 358.7 157.168C360.651 156.042 362.942 156.359 363.818 157.876Z" fill="#EACCAA"/>
<path d="M362.281 166.089C363.157 167.606 362.286 169.748 360.335 170.875C358.384 172.001 356.093 171.684 355.217 170.167C354.341 168.65 355.213 166.507 357.163 165.381C359.114 164.255 361.405 164.572 362.281 166.089Z" fill="#EACCAA"/>
<path d="M366.359 173.152C367.235 174.669 366.364 176.812 364.413 177.938C362.463 179.064 360.171 178.747 359.295 177.23C358.42 175.713 359.291 173.57 361.241 172.444C363.192 171.318 365.483 171.635 366.359 173.152Z" fill="#EACCAA"/>
<path d="M374.24 175.927C375.116 177.444 374.245 179.587 372.294 180.713C370.343 181.839 368.052 181.522 367.176 180.005C366.3 178.488 367.172 176.346 369.122 175.219C371.073 174.093 373.364 174.41 374.24 175.927Z" fill="#EACCAA"/>
</g>
<g opacity="0.3" clip-path="url(#clip3_786_4061)">
<path d="M368.342 426.337C368.063 424.857 368.708 423.652 369.331 422.488C369.873 421.475 370.385 420.517 370.392 419.325C370.405 416.025 370.335 414.079 372.692 412.719C375.049 411.358 376.702 412.39 379.569 414.026C380.607 414.617 381.697 414.651 382.847 414.689C384.167 414.732 385.53 414.775 386.673 415.754C387.097 416.1 387.453 416.521 387.724 416.997C388.878 418.995 388.225 421.541 386.461 422.559C384.698 423.577 381.861 424.029 379.877 425.174C377.893 426.32 376.116 428.532 374.33 429.563C372.545 430.593 370.042 429.87 368.888 427.872C368.613 427.399 368.427 426.878 368.342 426.337Z" fill="#EACCAA"/>
<path d="M384.44 412.215C382.923 413.091 380.78 412.22 379.654 410.269C378.528 408.319 378.845 406.027 380.362 405.151C381.879 404.275 384.021 405.147 385.148 407.097C386.274 409.048 385.957 411.339 384.44 412.215Z" fill="#EACCAA"/>
<path d="M376.227 410.678C374.71 411.554 372.567 410.682 371.441 408.732C370.315 406.781 370.632 404.49 372.149 403.614C373.666 402.738 375.809 403.61 376.935 405.56C378.061 407.511 377.744 409.802 376.227 410.678Z" fill="#EACCAA"/>
<path d="M369.164 414.756C367.647 415.632 365.504 414.761 364.378 412.81C363.251 410.86 363.568 408.568 365.085 407.692C366.603 406.816 368.745 407.688 369.871 409.638C370.998 411.589 370.681 413.88 369.164 414.756Z" fill="#EACCAA"/>
<path d="M366.388 422.637C364.871 423.513 362.729 422.641 361.602 420.691C360.476 418.74 360.793 416.449 362.31 415.573C363.827 414.697 365.97 415.569 367.096 417.519C368.222 419.47 367.906 421.761 366.388 422.637Z" fill="#EACCAA"/>
</g>
<g opacity="0.3" clip-path="url(#clip4_786_4061)">
<path d="M24.9928 158.329C25.6457 156.972 25.3337 155.641 25.0333 154.355C24.7722 153.236 24.5258 152.179 24.8274 151.025C25.6685 147.835 26.2396 145.973 24.3152 144.049C22.3907 142.124 20.5267 142.694 17.3343 143.531C16.1784 143.834 15.1175 143.585 13.9968 143.324C12.7108 143.024 11.3827 142.713 10.0258 143.362C9.52639 143.586 9.07294 143.901 8.68848 144.291C7.05681 145.923 7.02877 148.55 8.4686 149.99C9.90843 151.43 12.5314 152.6 14.1514 154.22C15.7715 155.841 16.9158 158.437 18.3736 159.895C19.8315 161.353 22.4364 161.302 24.0681 159.671C24.4565 159.284 24.77 158.83 24.9928 158.329Z" fill="#EACCAA"/>
<path d="M13.0985 140.522C14.3372 141.761 16.6324 141.474 18.225 139.881C19.8176 138.288 20.1045 135.993 18.8658 134.755C17.6271 133.516 15.3319 133.803 13.7393 135.395C12.1467 136.988 11.8598 139.283 13.0985 140.522Z" fill="#EACCAA"/>
<path d="M21.4291 141.163C22.6678 142.401 24.963 142.114 26.5556 140.522C28.1482 138.929 28.4351 136.634 27.1964 135.395C25.9577 134.157 23.6625 134.444 22.0699 136.036C20.4773 137.629 20.1904 139.924 21.4291 141.163Z" fill="#EACCAA"/>
<path d="M27.1964 146.93C28.4351 148.169 30.7304 147.882 32.323 146.289C33.9156 144.697 34.2025 142.401 32.9638 141.163C31.7251 139.924 29.4299 140.211 27.8373 141.803C26.2446 143.396 25.9577 145.691 27.1964 146.93Z" fill="#EACCAA"/>
<path d="M27.8373 155.261C29.0759 156.499 31.3712 156.212 32.9638 154.62C34.5564 153.027 34.8433 150.732 33.6046 149.493C32.3659 148.255 30.0707 148.542 28.4781 150.134C26.8855 151.727 26.5986 154.022 27.8373 155.261Z" fill="#EACCAA"/>
</g>
<g opacity="0.3" clip-path="url(#clip5_786_4061)">
<path d="M25.4499 336.275C26.1027 334.917 25.7907 333.586 25.4903 332.3C25.2292 331.181 24.9829 330.124 25.2845 328.97C26.1255 325.78 26.6967 323.918 24.7722 321.994C22.8478 320.07 20.9838 320.639 17.7913 321.477C16.6354 321.779 15.5745 321.531 14.4539 321.269C13.1678 320.97 11.8397 320.658 10.4828 321.308C9.98342 321.532 9.52998 321.847 9.14551 322.236C7.51384 323.868 7.4858 326.495 8.92563 327.935C10.3655 329.375 12.9884 330.546 14.6085 332.166C16.2285 333.786 17.3728 336.382 18.8306 337.84C20.2885 339.298 22.8934 339.248 24.5251 337.616C24.9135 337.23 25.2271 336.775 25.4499 336.275Z" fill="#EACCAA"/>
<path d="M13.5555 318.467C14.7942 319.706 17.0894 319.419 18.682 317.826C20.2747 316.234 20.5616 313.939 19.3229 312.7C18.0842 311.461 15.7889 311.748 14.1963 313.341C12.6037 314.933 12.3168 317.229 13.5555 318.467Z" fill="#EACCAA"/>
<path d="M21.8861 319.108C23.1248 320.347 25.42 320.06 27.0127 318.467C28.6053 316.875 28.8922 314.579 27.6535 313.341C26.4148 312.102 24.1195 312.389 22.5269 313.981C20.9343 315.574 20.6474 317.869 21.8861 319.108Z" fill="#EACCAA"/>
<path d="M27.6535 324.875C28.8922 326.114 31.1874 325.827 32.78 324.234C34.3726 322.642 34.6595 320.347 33.4208 319.108C32.1821 317.869 29.8869 318.156 28.2943 319.749C26.7017 321.341 26.4148 323.637 27.6535 324.875Z" fill="#EACCAA"/>
<path d="M28.2943 333.206C29.533 334.445 31.8282 334.158 33.4208 332.565C35.0134 330.973 35.3003 328.677 34.0616 327.439C32.8229 326.2 30.5277 326.487 28.9351 328.079C27.3425 329.672 27.0556 331.967 28.2943 333.206Z" fill="#EACCAA"/>
</g>
<defs>
<clipPath id="clip0_786_4061">
<rect width="29" height="29" fill="white" transform="matrix(0.707107 -0.707107 -0.707107 -0.707107 20.5061 62.3613)"/>
</clipPath>
<clipPath id="clip1_786_4061">
<rect width="29" height="29" fill="white" transform="matrix(0.866025 0.5 0.5 -0.866025 342.652 25.1147)"/>
</clipPath>
<clipPath id="clip2_786_4061">
<rect width="29" height="29" fill="white" transform="matrix(0.5 0.866025 0.866025 -0.5 347.652 162.5)"/>
</clipPath>
<clipPath id="clip3_786_4061">
<rect width="29" height="29" fill="white" transform="matrix(-0.866025 0.5 0.5 0.866025 379.815 396.049)"/>
</clipPath>
<clipPath id="clip4_786_4061">
<rect width="29" height="29" fill="white" transform="translate(21.7495 126.104) rotate(45)"/>
</clipPath>
<clipPath id="clip5_786_4061">
<rect width="29" height="29" fill="white" transform="translate(22.2065 304.049) rotate(45)"/>
</clipPath>
</defs>
</svg>
