<svg width="855" height="634" viewBox="0 0 855 634" fill="none" xmlns="http://www.w3.org/2000/svg">
<g opacity="0.3" clip-path="url(#clip0_773_4012)">
<path d="M831.722 79.1939C828.324 82.115 824.259 82.2432 820.334 82.3699C816.918 82.4811 813.691 82.5872 810.608 84.3421C802.088 89.2152 797.179 92.2895 790.167 88.2415C783.156 84.1935 783.358 78.3992 783.306 68.5813C783.286 65.027 781.755 62.17 780.141 59.1511C778.289 55.6868 776.372 52.1106 777.193 47.7116C777.453 46.104 778.009 44.5586 778.833 43.1539C782.265 37.2093 789.792 35.1059 795.038 38.1345C800.284 41.1631 805.667 47.7984 811.569 51.2061C817.472 54.6138 825.813 55.9026 831.125 58.9691C836.436 62.0356 838.297 69.5593 834.864 75.504C834.054 76.9174 832.989 78.1685 831.722 79.1939Z" fill="#EACCAA"/>
<path d="M771.398 58.7274C775.91 61.3329 776.853 68.1488 773.503 73.9511C770.153 79.7533 763.779 82.3448 759.266 79.7393C754.753 77.1338 753.811 70.3179 757.161 64.5156C760.511 58.7133 766.885 56.1218 771.398 58.7274Z" fill="#EACCAA"/>
<path d="M779.653 82.1707C784.166 84.7762 785.108 91.5921 781.758 97.3944C778.408 103.197 772.034 105.788 767.521 103.183C763.009 100.577 762.066 93.7613 765.416 87.959C768.766 82.1567 775.14 79.5652 779.653 82.1707Z" fill="#EACCAA"/>
<path d="M800.665 94.3021C805.178 96.9076 806.12 103.723 802.77 109.526C799.42 115.328 793.046 117.92 788.533 115.314C784.02 112.709 783.078 105.893 786.428 100.09C789.778 94.288 796.152 91.6965 800.665 94.3021Z" fill="#EACCAA"/>
<path d="M825.095 89.7294C829.608 92.335 830.55 99.1508 827.2 104.953C823.851 110.755 817.476 113.347 812.964 110.741C808.451 108.136 807.508 101.32 810.858 95.5177C814.208 89.7154 820.582 87.1239 825.095 89.7294Z" fill="#EACCAA"/>
</g>
<g opacity="0.3" clip-path="url(#clip1_773_4012)">
<path d="M152.638 594.389C152.157 588.02 148.19 583.795 144.362 579.711C141.031 576.156 137.886 572.797 136.547 567.921C132.872 554.424 131.023 546.378 119.877 543.392C108.732 540.405 103.095 546.448 93.1488 556.29C89.5467 559.852 85.124 561.188 80.4558 562.605C75.098 564.229 69.5611 565.901 65.956 571.162C64.5976 573.044 63.6003 575.162 63.0147 577.407C60.4826 586.857 65.9492 596.564 74.2881 598.798C82.627 601.032 94.7393 599.771 104.122 602.285C113.505 604.799 123.21 611.907 131.653 614.169C140.097 616.431 149.554 610.724 152.086 601.274C152.694 599.033 152.881 596.698 152.638 594.389Z" fill="#EACCAA"/>
<path d="M71.2168 554.22C78.3907 556.142 86.2099 550.223 88.6814 540.999C91.1528 531.776 87.3407 522.74 80.1668 520.818C72.9928 518.895 65.1736 524.814 62.7022 534.038C60.2307 543.262 64.0428 552.297 71.2168 554.22Z" fill="#EACCAA"/>
<path d="M103.163 538.913C110.337 540.835 118.156 534.916 120.627 525.693C123.099 516.469 119.287 507.433 112.113 505.511C104.939 503.589 97.1195 509.508 94.648 518.731C92.1766 527.955 95.9887 536.991 103.163 538.913Z" fill="#EACCAA"/>
<path d="M136.564 547.863C143.738 549.785 151.558 543.866 154.029 534.642C156.501 525.419 152.688 516.383 145.514 514.461C138.341 512.539 130.521 518.458 128.05 527.681C125.578 536.905 129.391 545.941 136.564 547.863Z" fill="#EACCAA"/>
<path d="M156.577 577.092C163.751 579.014 171.57 573.095 174.042 563.872C176.513 554.648 172.701 545.612 165.527 543.69C158.353 541.768 150.534 547.687 148.062 556.91C145.591 566.134 149.403 575.17 156.577 577.092Z" fill="#EACCAA"/>
</g>
<g opacity="0.3" clip-path="url(#clip2_773_4012)">
<path d="M37.7534 98.2737C43.3936 103.121 50.1385 103.334 56.6528 103.545C62.3225 103.729 67.6772 103.905 72.794 106.817C86.9329 114.904 95.08 120.006 106.715 113.289C118.351 106.571 118.017 96.9549 118.102 80.6618C118.136 74.7632 120.677 70.0219 123.354 65.0119C126.428 59.2628 129.61 53.328 128.246 46.0275C127.816 43.3597 126.893 40.7951 125.526 38.464C119.831 28.5986 107.338 25.1079 98.6326 30.134C89.9271 35.1601 80.9934 46.1717 71.1983 51.8269C61.4031 57.4821 47.5598 59.6209 38.7454 64.7099C29.931 69.7989 26.8433 82.2848 32.5391 92.1502C33.8841 94.4958 35.6521 96.572 37.7534 98.2737Z" fill="#EACCAA"/>
<path d="M137.865 64.3088C130.376 68.6327 128.811 79.944 134.37 89.5731C139.93 99.2022 150.508 103.503 157.997 99.179C165.487 94.855 167.051 83.5438 161.492 73.9146C155.932 64.2855 145.354 59.9848 137.865 64.3088Z" fill="#EACCAA"/>
<path d="M124.165 103.214C116.676 107.538 115.111 118.849 120.671 128.478C126.23 138.108 136.808 142.408 144.297 138.084C151.787 133.76 153.351 122.449 147.792 112.82C142.233 103.191 131.654 98.8902 124.165 103.214Z" fill="#EACCAA"/>
<path d="M89.2949 123.346C81.8056 127.67 80.241 138.982 85.8004 148.611C91.3598 158.24 101.938 162.541 109.427 158.217C116.917 153.893 118.481 142.581 112.922 132.952C107.362 123.323 96.7843 119.023 89.2949 123.346Z" fill="#EACCAA"/>
<path d="M48.7521 115.758C41.2627 120.082 39.6982 131.393 45.2576 141.022C50.817 150.652 61.3951 154.952 68.8844 150.628C76.3737 146.304 77.9383 134.993 72.3789 125.364C66.8195 115.735 56.2414 111.434 48.7521 115.758Z" fill="#EACCAA"/>
</g>
<defs>
<clipPath id="clip0_773_4012">
<rect width="86.2667" height="86.2667" fill="white" transform="matrix(0.866025 0.5 0.5 -0.866025 736.629 94.6857)"/>
</clipPath>
<clipPath id="clip1_773_4012">
<rect width="122.952" height="122.952" fill="white" transform="translate(72.4158 482.941) rotate(15)"/>
</clipPath>
<clipPath id="clip2_773_4012">
<rect width="143.163" height="143.163" fill="white" transform="translate(195.565 123.983) rotate(150)"/>
</clipPath>
</defs>
</svg>
